<svg xmlns="http://www.w3.org/2000/svg" xmlns:xlink="http://www.w3.org/1999/xlink" fill="none" version="1.1" width="55.32392501831055" height="50" viewBox="0 0 55.32392501831055 50"><g><path d="M5.35585,50Q2.86156,49.9962,2.21301,49.7318C1.3376,49.3749,0.637263,48.6879,0.273446,47.8292C0.00391631,47.1931,0,46.3607,0,44.7464C0,35.8681,0.021526,31.29,1.50397,27.7911C2.22638,26.086,3.19006,24.504,4.3532,23.0861Q4.36089,19.9176,4.39589,18.3869Q4.46818,15.2248,4.71374,13.1616Q5.0068,10.6991,5.63808,8.915Q6.34196,6.92579,7.58522,5.40626Q8.59915,4.16702,9.86249,3.17245Q11.4116,1.95292,13.4395,1.26248Q15.2583,0.643251,17.7687,0.355775Q19.8721,0.11491,23.0957,0.0439952Q25.0956,0,29.8375,0Q34.5794,0,36.5793,0.0439952Q39.8029,0.114908,41.9062,0.355773Q44.4167,0.643249,46.2354,1.26248Q48.2634,1.95292,49.8125,3.17245Q51.0758,4.16704,52.0897,5.40626Q53.333,6.92579,54.0369,8.91501Q54.6682,10.699,54.9612,13.1616Q55.2068,15.2248,55.2791,18.3869Q55.3239,20.3488,55.3239,25Q55.3239,29.6512,55.2791,31.6131Q55.2068,34.7752,54.9612,36.8384Q54.6682,39.3009,54.0369,41.085Q53.333,43.0742,52.0897,44.5937Q51.0758,45.8329,49.8125,46.8275Q48.2634,48.047,46.2354,48.7375Q44.4167,49.3567,41.9062,49.6442Q39.8029,49.885,36.5793,50L5.35585,50ZM31.6178,45.7729C34.2018,43.748,36.2559,41.1,37.5435,38.0608C39.026,34.5619,39.0475,29.9837,39.0475,21.1054C39.0475,19.4912,39.0436,18.6588,38.7741,18.0226C38.4102,17.1639,37.7099,16.4769,36.8345,16.1201C36.1859,15.8557,35.3374,15.8518,33.6917,15.8518L29.4568,15.8518C20.4058,15.8518,15.7386,15.873,12.1715,17.3271C10.9432,17.8278,9.77761,18.4467,8.68939,19.1693Q8.69531,18.7905,8.70237,18.4816Q8.77013,15.5178,8.99225,13.6515Q9.23069,11.648,9.7075,10.3005Q10.1673,9.00107,10.9446,8.05098Q11.6633,7.17267,12.5587,6.46776Q13.5272,5.70525,14.852,5.25422Q16.2257,4.78651,18.2682,4.55262Q20.1708,4.33475,23.1923,4.26828Q25.1439,4.22535,29.8375,4.22535Q34.5311,4.22535,36.4827,4.26828Q39.5042,4.33475,41.4068,4.55262Q43.4493,4.78651,44.823,5.25422Q46.1477,5.70524,47.1163,6.46775Q48.0117,7.17267,48.7303,8.05098Q49.5077,9.00107,49.9675,10.3005Q50.4443,11.648,50.6827,13.6515Q50.9048,15.5178,50.9726,18.4816Q51.0164,20.396,51.0164,25Q51.0164,29.604,50.9726,31.5184Q50.9048,34.4822,50.6827,36.3484Q50.4443,38.3519,49.9675,39.6995Q49.5077,40.9989,48.7303,41.949Q48.0117,42.8273,47.1163,43.5322Q46.1477,44.2947,44.823,44.7457Q43.4493,45.2135,41.4068,45.4473Q39.5042,45.6652,36.4827,45.7317Q34.9245,45.766,31.6178,45.7729ZM23.1132,32.9259C23.1132,34.8706,21.5061,36.4471,19.5236,36.4471C17.5411,36.4471,15.9339,34.8706,15.9339,32.9259C15.9339,30.9813,17.5411,29.4048,19.5236,29.4048C21.5061,29.4048,23.1132,30.9813,23.1132,32.9259Z" fill-rule="evenodd" fill="#1A79FF" fill-opacity="1"/></g></svg>